<svg width="134" height="31" viewBox="0 0 134 31" fill="none" xmlns="http://www.w3.org/2000/svg">
<path fill-rule="evenodd" clip-rule="evenodd" d="M5.2252e-05 19.6727L6.73303 26.923H16.8326L23.9999 19.6727H24V19.6727V1.99997H17.0498V7.32441L6.95023 7.32441V1.99997H0V19.6727V19.6727H5.2252e-05ZM17.0498 14.5748V19.6727H6.95023V14.5748L17.0498 14.5748Z" fill="black"/>
<path d="M27.5682 3.39205V1.36364H37.125V3.39205H33.5625V13H31.1307V3.39205H27.5682ZM41.0739 7.95455V13H38.6534V1.36364H41.0057V5.8125H41.108C41.3049 5.29735 41.6231 4.89394 42.0625 4.60227C42.5019 4.30682 43.053 4.15909 43.7159 4.15909C44.322 4.15909 44.8504 4.29167 45.3011 4.55682C45.7557 4.81818 46.108 5.19508 46.358 5.6875C46.6117 6.17614 46.7367 6.76136 46.733 7.44318V13H44.3125V7.875C44.3163 7.33712 44.1799 6.91856 43.9034 6.61932C43.6307 6.32008 43.2481 6.17045 42.7557 6.17045C42.4261 6.17045 42.1345 6.24053 41.8807 6.38068C41.6307 6.52083 41.4337 6.72538 41.2898 6.99432C41.1496 7.25947 41.0777 7.57955 41.0739 7.95455ZM52.6151 13.1705C51.7173 13.1705 50.9446 12.9886 50.2969 12.625C49.6529 12.2576 49.1567 11.7386 48.8082 11.0682C48.4598 10.3939 48.2855 9.59659 48.2855 8.67614C48.2855 7.77841 48.4598 6.99053 48.8082 6.3125C49.1567 5.63447 49.6473 5.10606 50.2798 4.72727C50.9162 4.34848 51.6624 4.15909 52.5185 4.15909C53.0942 4.15909 53.6302 4.25189 54.1264 4.4375C54.6264 4.61932 55.062 4.89394 55.4332 5.26136C55.8082 5.62879 56.0999 6.09091 56.3082 6.64773C56.5166 7.20076 56.6207 7.84848 56.6207 8.59091V9.25568H49.2514V7.75568H54.3423C54.3423 7.4072 54.2666 7.09848 54.1151 6.82955C53.9635 6.56061 53.7533 6.35038 53.4844 6.19886C53.2192 6.04356 52.9105 5.96591 52.5582 5.96591C52.1908 5.96591 51.8651 6.05114 51.581 6.22159C51.3007 6.38826 51.081 6.61364 50.9219 6.89773C50.7628 7.17803 50.6813 7.49053 50.6776 7.83523V9.26136C50.6776 9.69318 50.7571 10.0663 50.9162 10.3807C51.0791 10.6951 51.3082 10.9375 51.6037 11.108C51.8991 11.2784 52.2495 11.3636 52.6548 11.3636C52.9238 11.3636 53.17 11.3258 53.3935 11.25C53.617 11.1742 53.8082 11.0606 53.9673 10.9091C54.1264 10.7576 54.2476 10.572 54.331 10.3523L56.5696 10.5C56.456 11.0379 56.223 11.5076 55.8707 11.9091C55.5223 12.3068 55.0715 12.6174 54.5185 12.8409C53.9692 13.0606 53.3348 13.1705 52.6151 13.1705ZM30.017 27H27.3807L31.3977 15.3636H34.5682L38.5795 27H35.9432L33.0284 18.0227H32.9375L30.017 27ZM29.8523 22.4261H36.0795V24.3466H29.8523V22.4261ZM42.3551 21.9545V27H39.9347V18.2727H42.2415V19.8125H42.3438C42.5369 19.3049 42.8608 18.9034 43.3153 18.608C43.7699 18.3087 44.321 18.1591 44.9688 18.1591C45.5748 18.1591 46.1032 18.2917 46.554 18.5568C47.0047 18.822 47.3551 19.2008 47.6051 19.6932C47.8551 20.1818 47.9801 20.7652 47.9801 21.4432V27H45.5597V21.875C45.5634 21.3409 45.4271 20.9242 45.1506 20.625C44.8741 20.322 44.4934 20.1705 44.0085 20.1705C43.6828 20.1705 43.3949 20.2405 43.1449 20.3807C42.8987 20.5208 42.7055 20.7254 42.5653 20.9943C42.429 21.2595 42.3589 21.5795 42.3551 21.9545ZM52.3764 27.1648C51.8196 27.1648 51.3234 27.0682 50.8878 26.875C50.4522 26.678 50.1075 26.3883 49.8537 26.0057C49.6037 25.6193 49.4787 25.1383 49.4787 24.5625C49.4787 24.0777 49.5677 23.6705 49.7457 23.3409C49.9238 23.0114 50.1662 22.7462 50.473 22.5455C50.7798 22.3447 51.1283 22.1932 51.5185 22.0909C51.9124 21.9886 52.3253 21.9167 52.7571 21.875C53.2647 21.822 53.6738 21.7727 53.9844 21.7273C54.295 21.678 54.5204 21.6061 54.6605 21.5114C54.8007 21.4167 54.8707 21.2765 54.8707 21.0909V21.0568C54.8707 20.697 54.7571 20.4186 54.5298 20.2216C54.3063 20.0246 53.9882 19.9261 53.5753 19.9261C53.1397 19.9261 52.7931 20.0227 52.5355 20.2159C52.2779 20.4053 52.1075 20.6439 52.0241 20.9318L49.7855 20.75C49.8991 20.2197 50.1226 19.7614 50.456 19.375C50.7893 18.9848 51.2192 18.6856 51.7457 18.4773C52.276 18.2652 52.8897 18.1591 53.5866 18.1591C54.0715 18.1591 54.5355 18.2159 54.9787 18.3295C55.4257 18.4432 55.8215 18.6193 56.1662 18.858C56.5147 19.0966 56.7893 19.4034 56.9901 19.7784C57.1908 20.1496 57.2912 20.5947 57.2912 21.1136V27H54.9957V25.7898H54.9276C54.7874 26.0625 54.5999 26.303 54.3651 26.5114C54.1302 26.7159 53.848 26.8769 53.5185 26.9943C53.1889 27.108 52.8082 27.1648 52.3764 27.1648ZM53.0696 25.4943C53.4257 25.4943 53.7401 25.4242 54.0128 25.2841C54.2855 25.1402 54.4995 24.947 54.6548 24.7045C54.8101 24.4621 54.8878 24.1875 54.8878 23.8807V22.9545C54.812 23.0038 54.7079 23.0492 54.5753 23.0909C54.4465 23.1288 54.3007 23.1648 54.1378 23.1989C53.9749 23.2292 53.812 23.2576 53.6491 23.2841C53.4863 23.3068 53.3385 23.3277 53.206 23.3466C52.9219 23.3883 52.6738 23.4545 52.4616 23.5455C52.2495 23.6364 52.0848 23.7595 51.9673 23.9148C51.8499 24.0663 51.7912 24.2557 51.7912 24.483C51.7912 24.8125 51.9105 25.0644 52.1491 25.2386C52.3916 25.4091 52.6984 25.4943 53.0696 25.4943ZM61.5895 15.3636V27H59.169V15.3636H61.5895ZM67.4716 27.1705C66.589 27.1705 65.8258 26.983 65.1818 26.608C64.5417 26.2292 64.0473 25.7027 63.6989 25.0284C63.3504 24.3504 63.1761 23.5644 63.1761 22.6705C63.1761 21.7689 63.3504 20.9811 63.6989 20.3068C64.0473 19.6288 64.5417 19.1023 65.1818 18.7273C65.8258 18.3485 66.589 18.1591 67.4716 18.1591C68.3542 18.1591 69.1155 18.3485 69.7557 18.7273C70.3996 19.1023 70.8958 19.6288 71.2443 20.3068C71.5928 20.9811 71.767 21.7689 71.767 22.6705C71.767 23.5644 71.5928 24.3504 71.2443 25.0284C70.8958 25.7027 70.3996 26.2292 69.7557 26.608C69.1155 26.983 68.3542 27.1705 67.4716 27.1705ZM67.483 25.2955C67.8845 25.2955 68.2197 25.1818 68.4886 24.9545C68.7576 24.7235 68.9602 24.4091 69.0966 24.0114C69.2367 23.6136 69.3068 23.161 69.3068 22.6534C69.3068 22.1458 69.2367 21.6932 69.0966 21.2955C68.9602 20.8977 68.7576 20.5833 68.4886 20.3523C68.2197 20.1212 67.8845 20.0057 67.483 20.0057C67.0777 20.0057 66.7367 20.1212 66.4602 20.3523C66.1875 20.5833 65.9811 20.8977 65.8409 21.2955C65.7045 21.6932 65.6364 22.1458 65.6364 22.6534C65.6364 23.161 65.7045 23.6136 65.8409 24.0114C65.9811 24.4091 66.1875 24.7235 66.4602 24.9545C66.7367 25.1818 67.0777 25.2955 67.483 25.2955ZM77.2727 30.4545C76.4886 30.4545 75.8163 30.3466 75.2557 30.1307C74.6989 29.9186 74.2557 29.6288 73.9261 29.2614C73.5966 28.8939 73.3826 28.4811 73.2841 28.0227L75.5227 27.7216C75.5909 27.8958 75.6989 28.0587 75.8466 28.2102C75.9943 28.3617 76.1894 28.483 76.4318 28.5739C76.678 28.6686 76.9773 28.7159 77.3295 28.7159C77.8561 28.7159 78.2898 28.5871 78.6307 28.3295C78.9754 28.0758 79.1477 27.6496 79.1477 27.0511V25.4545H79.0455C78.9394 25.697 78.7803 25.9261 78.5682 26.142C78.3561 26.358 78.0833 26.5341 77.75 26.6705C77.4167 26.8068 77.0189 26.875 76.5568 26.875C75.9015 26.875 75.3049 26.7235 74.767 26.4205C74.233 26.1136 73.8068 25.6458 73.4886 25.017C73.1742 24.3845 73.017 23.5852 73.017 22.6193C73.017 21.6307 73.178 20.8049 73.5 20.142C73.822 19.4792 74.25 18.983 74.7841 18.6534C75.322 18.3239 75.911 18.1591 76.5511 18.1591C77.0398 18.1591 77.4489 18.2424 77.7784 18.4091C78.108 18.572 78.3731 18.7765 78.5739 19.0227C78.7784 19.2652 78.9356 19.5038 79.0455 19.7386H79.1364V18.2727H81.5398V27.0852C81.5398 27.8277 81.358 28.4489 80.9943 28.9489C80.6307 29.4489 80.1269 29.8239 79.483 30.0739C78.8428 30.3277 78.1061 30.4545 77.2727 30.4545ZM77.3239 25.0568C77.714 25.0568 78.0436 24.9602 78.3125 24.767C78.5852 24.5701 78.7936 24.2898 78.9375 23.9261C79.0852 23.5587 79.1591 23.1193 79.1591 22.608C79.1591 22.0966 79.0871 21.6534 78.9432 21.2784C78.7992 20.8996 78.5909 20.6061 78.3182 20.3977C78.0455 20.1894 77.714 20.0852 77.3239 20.0852C76.9261 20.0852 76.5909 20.1932 76.3182 20.4091C76.0455 20.6212 75.839 20.9167 75.6989 21.2955C75.5587 21.6742 75.4886 22.1117 75.4886 22.608C75.4886 23.1117 75.5587 23.5473 75.6989 23.9148C75.8428 24.2784 76.0492 24.5606 76.3182 24.7614C76.5909 24.9583 76.9261 25.0568 77.3239 25.0568ZM89.2202 27H86.5838L90.6009 15.3636H93.7713L97.7827 27H95.1463L92.2315 18.0227H92.1406L89.2202 27ZM89.0554 22.4261H95.2827V24.3466H89.0554V22.4261ZM99.1378 27V18.2727H101.484V19.7955H101.575C101.734 19.2538 102.001 18.8447 102.376 18.5682C102.751 18.2879 103.183 18.1477 103.672 18.1477C103.793 18.1477 103.924 18.1553 104.064 18.1705C104.204 18.1856 104.327 18.2064 104.433 18.233V20.3807C104.32 20.3466 104.162 20.3163 103.962 20.2898C103.761 20.2633 103.577 20.25 103.411 20.25C103.054 20.25 102.736 20.3277 102.456 20.483C102.179 20.6345 101.96 20.8466 101.797 21.1193C101.638 21.392 101.558 21.7064 101.558 22.0625V27H99.1378ZM109.256 27.1705C108.358 27.1705 107.585 26.9886 106.938 26.625C106.294 26.2576 105.797 25.7386 105.449 25.0682C105.1 24.3939 104.926 23.5966 104.926 22.6761C104.926 21.7784 105.1 20.9905 105.449 20.3125C105.797 19.6345 106.288 19.1061 106.92 18.7273C107.557 18.3485 108.303 18.1591 109.159 18.1591C109.735 18.1591 110.271 18.2519 110.767 18.4375C111.267 18.6193 111.703 18.8939 112.074 19.2614C112.449 19.6288 112.741 20.0909 112.949 20.6477C113.157 21.2008 113.261 21.8485 113.261 22.5909V23.2557H105.892V21.7557H110.983C110.983 21.4072 110.907 21.0985 110.756 20.8295C110.604 20.5606 110.394 20.3504 110.125 20.1989C109.86 20.0436 109.551 19.9659 109.199 19.9659C108.831 19.9659 108.506 20.0511 108.222 20.2216C107.941 20.3883 107.722 20.6136 107.562 20.8977C107.403 21.178 107.322 21.4905 107.318 21.8352V23.2614C107.318 23.6932 107.398 24.0663 107.557 24.3807C107.72 24.6951 107.949 24.9375 108.244 25.108C108.54 25.2784 108.89 25.3636 109.295 25.3636C109.564 25.3636 109.811 25.3258 110.034 25.25C110.258 25.1742 110.449 25.0606 110.608 24.9091C110.767 24.7576 110.888 24.572 110.972 24.3523L113.21 24.5C113.097 25.0379 112.864 25.5076 112.511 25.9091C112.163 26.3068 111.712 26.6174 111.159 26.8409C110.61 27.0606 109.975 27.1705 109.256 27.1705ZM117.261 21.9545V27H114.841V18.2727H117.148V19.8125H117.25C117.443 19.3049 117.767 18.9034 118.222 18.608C118.676 18.3087 119.227 18.1591 119.875 18.1591C120.481 18.1591 121.009 18.2917 121.46 18.5568C121.911 18.822 122.261 19.2008 122.511 19.6932C122.761 20.1818 122.886 20.7652 122.886 21.4432V27H120.466V21.875C120.47 21.3409 120.333 20.9242 120.057 20.625C119.78 20.322 119.4 20.1705 118.915 20.1705C118.589 20.1705 118.301 20.2405 118.051 20.3807C117.805 20.5208 117.612 20.7254 117.472 20.9943C117.335 21.2595 117.265 21.5795 117.261 21.9545ZM127.283 27.1648C126.726 27.1648 126.23 27.0682 125.794 26.875C125.358 26.678 125.014 26.3883 124.76 26.0057C124.51 25.6193 124.385 25.1383 124.385 24.5625C124.385 24.0777 124.474 23.6705 124.652 23.3409C124.83 23.0114 125.072 22.7462 125.379 22.5455C125.686 22.3447 126.035 22.1932 126.425 22.0909C126.819 21.9886 127.232 21.9167 127.663 21.875C128.171 21.822 128.58 21.7727 128.891 21.7273C129.201 21.678 129.427 21.6061 129.567 21.5114C129.707 21.4167 129.777 21.2765 129.777 21.0909V21.0568C129.777 20.697 129.663 20.4186 129.436 20.2216C129.213 20.0246 128.894 19.9261 128.482 19.9261C128.046 19.9261 127.699 20.0227 127.442 20.2159C127.184 20.4053 127.014 20.6439 126.93 20.9318L124.692 20.75C124.805 20.2197 125.029 19.7614 125.362 19.375C125.696 18.9848 126.125 18.6856 126.652 18.4773C127.182 18.2652 127.796 18.1591 128.493 18.1591C128.978 18.1591 129.442 18.2159 129.885 18.3295C130.332 18.4432 130.728 18.6193 131.072 18.858C131.421 19.0966 131.696 19.4034 131.896 19.7784C132.097 20.1496 132.197 20.5947 132.197 21.1136V27H129.902V25.7898H129.834C129.694 26.0625 129.506 26.303 129.271 26.5114C129.036 26.7159 128.754 26.8769 128.425 26.9943C128.095 27.108 127.714 27.1648 127.283 27.1648ZM127.976 25.4943C128.332 25.4943 128.646 25.4242 128.919 25.2841C129.192 25.1402 129.406 24.947 129.561 24.7045C129.716 24.4621 129.794 24.1875 129.794 23.8807V22.9545C129.718 23.0038 129.614 23.0492 129.482 23.0909C129.353 23.1288 129.207 23.1648 129.044 23.1989C128.881 23.2292 128.718 23.2576 128.555 23.2841C128.393 23.3068 128.245 23.3277 128.112 23.3466C127.828 23.3883 127.58 23.4545 127.368 23.5455C127.156 23.6364 126.991 23.7595 126.874 23.9148C126.756 24.0663 126.697 24.2557 126.697 24.483C126.697 24.8125 126.817 25.0644 127.055 25.2386C127.298 25.4091 127.605 25.4943 127.976 25.4943Z" fill="black"/>
</svg>
